PathFileType	4	(X/Y/Z)	/Users/visionmauri/Downloads/Videos/OAW13-top_Sports2D/OAW13-top_Sports2D_px_person00.trc
DataRate	CameraRate	NumFrames	NumMarkers	Units	OrigDataRate	OrigDataStartFrame	OrigNumFrames
27.0	27.0	11	22	m	27.0	494	1977
Frame#	Time	Hip			RHip			RKnee			RAnkle			RBigToe			RSmallToe			RHeel			LHip			LKnee			LAnkle			LBigToe			LSmallToe			LHeel			Neck			Head			Nose			RShoulder			RElbow			RWrist			LShoulder			LElbow			LWrist			
		X1	Y1	Z1	X2	Y2	Z2	X3	Y3	Z3	X4	Y4	Z4	X5	Y5	Z5	X6	Y6	Z6	X7	Y7	Z7	X8	Y8	Z8	X9	Y9	Z9	X10	Y10	Z10	X11	Y11	Z11	X12	Y12	Z12	X13	Y13	Z13	X14	Y14	Z14	X15	Y15	Z15	X16	Y16	Z16	X17	Y17	Z17	X18	Y18	Z18	X19	Y19	Z19	X20	Y20	Z20	X21	Y21	Z21	X22	Y22	Z22
494	18.305555555555557	544.7548111830694	850.5404527675175	0.0	517.9019984376293	848.9302749236406	0.0	508.82805411183455	941.6444574137711	0.0	509.7585700094263	1016.5376130041368	0.0	512.0407281066181	1054.0119614474722	0.0	496.5669028864781	1050.806095322397	0.0	512.515672711712	1027.8875546367083	0.0	570.4166590483961	852.4123446816949	0.0	563.596084626911	944.8460857590865	0.0	551.8161708166435	1030.9216267768036	0.0	538.8496521746042	1068.7724464807118	0.0	555.3090557696459	1067.8953194103274	0.0	549.8336281448289	1042.455260026034	0.0	551.9508626154835	727.1830896574182	0.0	559.5047351368454	683.5033122746668	0.0	557.9356435017871	737.716459513383	0.0	506.0350781217183	721.6075234535721	0.0	481.20301720885874	789.8683787310956	0.0	472.59644196640386	854.82627052922	0.0	599.0304675180248	725.0841561572608	0.0	611.9095468790979	802.2895322642983	0.0	614.6673464494966	869.3150966045049	0.0
495	18.34261133603239	544.653693327256	850.8177873334705	0.0	518.1120612212432	849.5446904353953	0.0	508.6951649536475	942.4247298972657	0.0	509.18029630728086	1022.837979667572	0.0	510.59827094572233	1060.2600880929901	0.0	495.13861123017205	1057.5282281887328	0.0	512.42363386598	1035.9954603839535	0.0	570.4774734380142	852.5583090529605	0.0	563.2533096064648	945.320967589364	0.0	551.9656966679637	1030.8742986535237	0.0	538.8865957494876	1069.1998427227504	0.0	555.4882075296928	1068.904080213105	0.0	550.0078476671365	1041.8190740279267	0.0	552.5301141476954	726.9994714801901	0.0	559.7237831978333	681.5627284012977	0.0	557.9575465623337	737.6792113392709	0.0	506.0548465461436	721.2837389125184	0.0	482.5583766978051	790.5056522208965	0.0	473.24306351035233	855.9416785507383	0.0	599.1987338532605	725.2846201957889	0.0	612.4211615510011	802.5473549140173	0.0	614.4439018158107	870.5965320070342	0.0
496	18.379667116509225	544.5159022414326	851.1613808398351	0.0	518.265946841273	850.39266823156	0.0	508.768733040589	943.8405549105187	0.0	508.56048544514346	1029.913404827092	0.0	508.190562496078	1066.146972094592	0.0	493.43492604130296	1063.6740569369101	0.0	512.2726380741534	1044.5952732849642	0.0	570.2659015254376	852.6324960625759	0.0	563.095132646195	946.2234702746448	0.0	552.232472168426	1030.587828465226	0.0	539.2258002652644	1070.1169144771427	0.0	555.9101819602555	1070.1457153317713	0.0	550.0584460987598	1042.3041820734582	0.0	552.6532748977135	726.6359112645976	0.0	559.9942590990474	679.6930831183994	0.0	557.5948424063029	737.3330196396054	0.0	505.91569594914694	721.1120718647693	0.0	483.49786475935446	791.0857956456589	0.0	474.09692488802995	856.4434765806864	0.0	599.1364052977133	725.7498869254534	0.0	612.4645013258373	802.5919435368559	0.0	614.0149138505583	871.6298793199034	0.0
497	18.416722896986055	544.2993174466073	851.3308895566037	0.0	518.3073141192928	850.900510095875	0.0	508.7764240590521	945.3330129251967	0.0	507.59718034875414	1035.3499365723428	0.0	506.208540449727	1069.5003554030125	0.0	492.4779518048158	1067.061902320718	0.0	511.3729127307174	1050.7827545809066	0.0	569.6667329269028	852.9058945060657	0.0	563.2138062393964	946.9405543317118	0.0	552.1452027692873	1030.2722830687665	0.0	539.3635957951092	1070.662317638376	0.0	556.1878756406313	1070.721786572661	0.0	549.7970594797739	1044.0572183954037	0.0	552.1779900110234	725.786808390634	0.0	560.4254688720467	679.6548168058628	0.0	557.4621206278173	736.9988514741124	0.0	505.49857558991374	720.725959877122	0.0	483.8500256002462	790.8634408869851	0.0	475.21129104794346	855.9521783458649	0.0	599.0779675755568	725.814400841576	0.0	612.0115557453935	802.4316765055046	0.0	613.3743583725388	871.7418455695777	0.0
498	18.45377867746289	543.9824447420958	851.1352274623902	0.0	517.9776992116806	850.8722275168535	0.0	508.63899491985393	945.7943221308633	0.0	506.3465424211428	1038.7575323778913	0.0	505.6531761239861	1071.365036281462	0.0	492.1741531533409	1069.0200145792062	0.0	509.9329469110416	1054.2705447229778	0.0	569.0029699225701	853.1141694909468	0.0	563.3096147728224	946.9680825342257	0.0	551.7333396907579	1030.4736310508142	0.0	539.193799226873	1070.6851406646433	0.0	556.3118514959707	1070.6815778653154	0.0	549.4849240694814	1045.6041609068504	0.0	551.4376461377404	725.1255532716633	0.0	560.7322142244897	680.5402288113892	0.0	557.475982982895	736.9866309880643	0.0	504.857495624298	720.2111840619355	0.0	483.82842290293513	789.4508580268325	0.0	476.4616825296793	854.6850914164255	0.0	599.137981541963	725.6663723477841	0.0	611.3627889386771	801.9947751990838	0.0	612.3291320603739	870.6755603295406	0.0
499	18.490834457939723	543.3971043761389	851.2207723175235	0.0	517.1733513423507	850.735730779943	0.0	508.2472386246045	945.6232825798879	0.0	505.2100665399962	1041.4099183887981	0.0	506.17522044537515	1073.879213745083	0.0	491.87261449567893	1071.8032259663732	0.0	508.56680805766854	1056.664174859595	0.0	568.3891938860904	853.3447768358528	0.0	562.9137011528302	946.8479078705354	0.0	551.471463626842	1031.3451251376857	0.0	538.9145566116476	1070.5595761811962	0.0	556.2145343851153	1070.5325591703759	0.0	549.3960782868203	1045.7244328883912	0.0	550.8751325782164	725.0861014958489	0.0	559.7993637525773	680.1586387981043	0.0	556.801738059808	736.8529245694502	0.0	504.13282369761083	720.085484546637	0.0	483.6567813284426	787.3789466109339	0.0	477.54711287509747	852.9533247734671	0.0	599.0209381068689	726.2401148367729	0.0	610.8902292020429	801.6142064615748	0.0	610.5514070918156	869.1954269028245	0.0
500	18.527890238416557	542.4408166415307	852.1949665783272	0.0	516.2487424351954	851.2339913398359	0.0	507.758590093496	946.0019588564885	0.0	504.4145060539176	1043.630213679949	0.0	506.4327754095229	1076.5132909522288	0.0	491.33799969301276	1074.593756664001	0.0	507.58404865679654	1058.8056432771093	0.0	567.718252976897	854.1493361183265	0.0	562.0721907833279	947.2327586047088	0.0	551.4876421157041	1032.2878350752428	0.0	538.573156797614	1070.3655575066095	0.0	555.6014482048241	1070.3579491419353	0.0	549.7537503619039	1045.1231873702964	0.0	550.3138351559202	725.1713947714707	0.0	557.3943440148244	678.7049354656322	0.0	554.970515241752	736.2013351174124	0.0	503.28349065745937	720.7284092046747	0.0	483.06479337752876	785.8060372727467	0.0	478.33777353160565	850.8880362595694	0.0	598.4010283059959	727.4013078686271	0.0	610.5809822049503	801.4450942879882	0.0	608.1282239465828	868.1895590913632	0.0
501	18.564946018893387	541.4268097244677	853.5356272945144	0.0	515.5883142847287	852.6643163580769	0.0	507.4476934964616	947.0458950420464	0.0	503.94896285219943	1044.9580131929545	0.0	505.6359880045887	1077.9932316398754	0.0	490.5732237748339	1075.8848788189096	0.0	506.8999073874215	1060.4297449598887	0.0	567.0183960659273	855.3750505791639	0.0	561.2767439071376	947.8379018492532	0.0	551.5651458060986	1032.522834350197	0.0	538.1358890917451	1070.1810489891711	0.0	554.8219332049475	1070.092831734937	0.0	550.3871372485464	1044.7380214531152	0.0	549.1824677593511	725.1930076954503	0.0	554.4201025011977	677.9237161285934	0.0	552.5143183597474	735.6931189885397	0.0	502.0755286793788	722.1388081594503	0.0	481.9121870993795	785.2475049010598	0.0	478.9757401250483	848.8226040734232	0.0	597.2943640949987	727.9998676044003	0.0	610.148725297598	801.0743784644408	0.0	605.6540115591507	867.4311409793021	0.0
502	18.60200179937022	540.6690408745842	854.290122623465	0.0	514.9718461448915	854.2284979545688	0.0	507.02821190547166	947.9034222207464	0.0	503.70118337776006	1045.9028597498766	0.0	504.3406209112582	1079.355086881476	0.0	489.5760367910633	1076.942910825951	0.0	506.46633960570074	1061.7413688131303	0.0	566.2385000506497	856.1584990891395	0.0	560.7108983620691	948.2953708160503	0.0	551.5840173512092	1032.127468631492	0.0	537.9344711416323	1070.292440085817	0.0	554.6662011138784	1069.9225783464235	0.0	550.6499820654718	1044.4495529813207	0.0	547.5448478384241	725.9121152474497	0.0	550.8534031358419	678.2547285036043	0.0	549.8418548513995	736.2543188352661	0.0	500.5573488521846	723.7016212503014	0.0	480.59750028525696	785.1646390845184	0.0	479.6854730708393	847.3428233712281	0.0	595.890735983949	727.8387071335861	0.0	609.6583983983122	800.5009426192673	0.0	603.4981253383866	866.0397050661119	0.0
503	18.639057579847055	539.9428351634207	854.3671534191741	0.0	513.8532750100261	854.911657783395	0.0	506.060495291893	948.140694782223	0.0	503.43802669704104	1047.588393521302	0.0	503.48698115023274	1082.0195902142634	0.0	488.62333735603755	1079.4489934095038	0.0	506.42272451489913	1063.6949382511466	0.0	565.1888189939741	856.2051133337167	0.0	560.2513243947648	948.9410802968165	0.0	551.5955475696081	1032.0436270114815	0.0	538.3042654726361	1070.7537564262989	0.0	555.1020923804753	1070.2194493387037	0.0	550.4462514342301	1044.4658290740792	0.0	545.8784362227569	727.5084230539211	0.0	546.7140458018157	679.1513727017652	0.0	547.088357388341	737.6172805884594	0.0	498.94360224758447	724.4588917520321	0.0	479.4418801683272	784.9552552495807	0.0	480.4867568563273	846.954447904437	0.0	594.2852590022278	727.6702692295332	0.0	609.4484346262497	800.2798221572299	0.0	601.3806913260868	864.405993030145	0.0
504	18.67611336032389	538.7026672566622	854.6532396310831	0.0	512.2989599003921	855.1019998044846	0.0	504.78123117520715	948.5547240824803	0.0	503.1301223841457	1050.2211210574173	0.0	503.3634253243013	1085.3161131053616	0.0	488.18183569652837	1082.7297495295359	0.0	506.55657569399887	1066.4774230056667	0.0	563.9799359746255	856.250375282261	0.0	559.764848163814	950.0816943914484	0.0	551.63158709406	1032.7464215886737	0.0	538.885232912019	1071.2417820003157	0.0	555.4188705146819	1070.9618667524906	0.0	550.2752065076514	1045.043551116951	0.0	544.0503066281894	728.7203881245227	0.0	543.5144311879114	680.2677911515761	0.0	544.7324657631768	738.5321336200999	0.0	496.9309395364018	724.4113261572398	0.0	478.262001050357	785.0745638919028	0.0	481.00562731839915	847.8621086244285	0.0	592.5921369406411	727.7584429932696	0.0	609.3282058237929	800.40302517108	0.0	599.0038491246582	863.5115399225482	0.0
